<?xml version="1.0" standalone="no"?>
<!DOCTYPE svg PUBLIC "-//W3C//DTD SVG 20010904//EN"
 "http://www.w3.org/TR/2001/REC-SVG-20010904/DTD/svg10.dtd">
<svg version="1.0" xmlns="http://www.w3.org/2000/svg"
 width="300.000000pt" height="300.000000pt" viewBox="0 0 300.000000 300.000000"
 preserveAspectRatio="xMidYMid meet">
<metadata>
Created by potrace 1.14, written by Peter Selinger 2001-2017
</metadata>
<g transform="translate(0.000000,300.000000) scale(0.100000,-0.100000)"
fill="#000000" stroke="none">
<path d="M79 2727 c-68 -32 -82 -71 -75 -214 7 -136 28 -256 52 -309 25 -54
87 -129 150 -184 29 -25 53 -48 53 -51 1 -4 -15 -10 -35 -14 -68 -12 -105 -53
-97 -105 5 -36 49 -118 90 -167 78 -97 242 -154 445 -157 69 -1 76 -4 57 -23
-5 -5 -11 -21 -13 -34 -1 -13 -9 -35 -16 -49 -8 -14 -21 -38 -30 -55 -10 -19
-26 -32 -49 -38 -25 -6 -31 -11 -22 -20 8 -8 6 -16 -7 -30 -12 -15 -14 -21 -5
-24 10 -3 10 -10 2 -24 -5 -11 -7 -23 -5 -28 3 -5 -3 -35 -13 -67 -29 -91 -34
-124 -21 -124 8 0 10 -12 5 -39 -3 -21 -3 -41 2 -44 5 -3 8 -29 6 -59 -1 -32
3 -57 10 -63 7 -5 12 -14 12 -20 0 -5 4 -34 8 -62 6 -42 12 -53 26 -53 13 0
20 -10 24 -36 3 -20 13 -44 21 -53 7 -9 16 -25 18 -36 2 -12 10 -19 21 -17 11
2 17 -4 17 -15 1 -10 23 -43 50 -73 28 -30 50 -58 50 -62 0 -5 7 -8 15 -8 8 0
31 -18 51 -40 38 -42 54 -50 54 -26 0 12 7 11 42 -1 23 -8 50 -12 61 -9 10 2
37 -2 60 -10 28 -10 43 -11 47 -4 9 14 74 11 133 -8 106 -32 243 13 286 95 14
28 1 30 -35 6 -23 -14 -40 -16 -121 -10 -7 0 -11 10 -8 21 2 12 4 24 4 27 1 3
13 19 28 35 15 16 28 40 29 54 2 42 22 93 49 124 14 16 23 37 20 45 -2 9 4 27
14 40 28 37 55 21 91 -55 16 -35 36 -64 42 -65 7 0 22 -2 33 -4 11 -3 32 4 46
15 l27 19 188 -105 c104 -57 197 -104 206 -104 10 0 57 9 105 21 48 11 95 22
103 24 115 27 205 72 228 115 32 61 -23 165 -109 208 -54 27 -76 19 -166 -67
-81 -77 -131 -105 -184 -104 -44 1 -201 47 -354 104 -46 17 -54 26 -95 96 -56
96 -54 89 -36 96 9 4 34 -12 63 -40 26 -25 71 -56 100 -70 132 -61 228 -9 298
164 18 44 29 59 47 62 84 12 127 133 83 237 -17 42 -18 45 -7 42 4 0 15 2 25
7 9 4 32 5 50 2 98 -16 106 -27 105 -147 0 -19 1 -46 2 -60 0 -14 1 -53 0 -87
0 -68 15 -93 54 -93 49 0 78 68 52 121 -10 21 -13 36 -7 43 6 7 6 26 0 51 -6
22 -12 60 -12 83 -2 32 -8 49 -24 62 -13 10 -23 23 -23 28 0 47 -205 75 -240
34 -15 -18 -16 -18 -33 5 -10 13 -36 32 -57 43 -27 14 -38 25 -34 35 4 9 1 15
-7 15 -9 0 -10 3 -2 11 7 7 33 6 88 -4 148 -28 294 -16 402 35 101 47 123 97
68 152 l-32 32 64 34 c86 44 177 137 233 235 125 222 94 325 -75 245 -42 -20
-79 -42 -192 -111 -276 -170 -396 -234 -518 -277 -162 -56 -265 -76 -280 -52
-3 6 -17 10 -31 10 -13 0 -33 6 -44 13 -17 10 -22 9 -29 -2 -7 -11 -11 -9 -20
7 -11 21 -78 72 -93 72 -5 0 -8 -7 -8 -15 0 -13 -4 -14 -34 -1 -53 22 -102 24
-98 5 1 -10 -5 -15 -20 -15 -13 1 -22 -4 -21 -9 1 -6 -13 -11 -30 -11 -34 -1
-113 -10 -160 -19 -20 -4 -43 2 -74 21 -114 66 -329 278 -489 481 -148 187
-348 374 -466 434 -49 25 -124 33 -159 16z"/>
</g>
</svg>
